<?xml version="1.0" standalone="no"?>
<!DOCTYPE svg PUBLIC "-//W3C//DTD SVG 20010904//EN"
 "http://www.w3.org/TR/2001/REC-SVG-20010904/DTD/svg10.dtd">
<svg version="1.0" xmlns="http://www.w3.org/2000/svg"
 width="700.000000pt" height="700.000000pt" viewBox="0 0 700.000000 700.000000"
 preserveAspectRatio="xMidYMid meet">
<metadata>
Created by potrace 1.14, written by Peter Selinger 2001-2017
</metadata>
<g transform="translate(0.000000,700.000000) scale(0.100000,-0.100000)"
fill="#000000" stroke="none">
<path d="M4354 5151 c-62 -16 -125 -54 -165 -99 -27 -31 -183 -311 -446 -802
-223 -415 -409 -759 -413 -764 -5 -5 -92 39 -205 102 -107 61 -216 118 -240
127 -130 44 -289 -11 -369 -128 -95 -139 -80 -319 37 -443 43 -45 108 -86 377
-240 417 -239 431 -246 506 -252 107 -8 228 42 288 121 55 72 1022 1883 1037
1941 28 113 -13 265 -94 344 -78 76 -217 118 -313 93z"/>
<path d="M767 4511 c-174 -82 -339 -166 -367 -186 -208 -152 -303 -429 -234
-675 9 -30 335 -773 725 -1650 491 -1102 724 -1616 756 -1663 58 -86 127 -146
224 -197 106 -55 189 -73 319 -68 80 3 122 10 175 30 39 14 435 195 880 403
903 421 1392 648 1972 918 215 100 391 183 389 184 -2 2 -259 -37 -572 -87
-2339 -371 -2787 -440 -2845 -440 -262 0 -511 187 -592 445 -9 28 -125 736
-257 1575 -132 839 -244 1533 -248 1542 -6 15 -48 -2 -325 -131z"/>
</g>
</svg>
